<svg id="ico-fechar" width="21" height="21" viewBox="0 0 21 21" fill="none" xmlns="http://www.w3.org/2000/svg">
<path d="M3 0H0V3H3V0Z" fill="black"/>
<path d="M5.99973 3.0002L3 3L2.99973 6.0002H5.99973V3.0002Z" fill="black"/>
<path d="M5.99973 6.0002L9.0004 5.99993V8.99993H6.0004L5.99973 6.0002Z" fill="black"/>
<path d="M11.9996 9.00013L9.0004 8.99993L9.00013 11.9999H6.0004V14.9999H9.0004L9.00013 11.9999L11.9996 12.0001V15.0001H14.9996V12.0001L11.9996 12.0001V9.00013H14.9996V6.00013L11.9996 6.00013V9.00013Z" fill="black"/>
<path d="M6.0004 14.9999L2.99973 15.0001V17.9998H0V20.9998H3L2.99973 17.9998L5.99973 18.0001L6.0004 14.9999Z" fill="black"/>
<path d="M21 21H18V18H21V21Z" fill="black"/>
<path d="M18 18L15.0003 17.9998L14.9996 15.0001L18.0003 14.9998L18 18Z" fill="black"/>
<path d="M14.9996 6.00013L18.0003 5.99993V3.0002L21 3.0002V0.000200272L18 0.000200009L18.0003 3.0002L15.0003 2.99993L14.9996 6.00013Z" fill="black"/>
</svg>
