<svg width="22" height="22" viewBox="0 0 22 22" fill="none" xmlns="http://www.w3.org/2000/svg">
<path fill-rule="evenodd" clip-rule="evenodd" d="M6.51855 6.60059H8.15332V5.39062H13.5264V6.60059H15.0371V8.24219H16.375V13.6152H15.0371V15.1558H13.5264V16.3901H8.15332V15.1558H6.51855V13.6152H5.2832V8.24219H6.51855V6.60059ZM14.375 8.60059V13.1558H13.0371V14.3901H8.51855V13.1558H7.2832V8.60059H8.51855V7.39062H13.0371V8.60059H14.375Z" fill="black"/>
<path d="M17.6133 4.20215H15.6133V6.20215H17.6133V4.20215Z" fill="black"/>
<path fill-rule="evenodd" clip-rule="evenodd" d="M4.70703 0H17.0049V1H18.6143V2H19.8066V3.20215H20.8066V4.80518H21.6992V17.0518H20.8066V18.5283H19.8066V19.7305H18.6143V20.7305H17.0049V21.7305H4.70703V20.7305H2.96875V19.7305H1.77637V18.5283H0.776367V17.0518H0V4.80518H0.776367V3.20215H1.77637V2H2.96875V1H4.70703V0ZM19.6992 16.5283V5.20215H18.8066V4H17.8066V3H16.6143V2H4.96875V3H3.77637V4H2.77637V5.20215H2V16.5283H2.77637V17.7305H3.77637V18.7305H4.96875V19.7305H16.6143V18.7305H17.8066V17.7305H18.8066V16.5283H19.6992Z" fill="black"/>
</svg>
